<svg width="38" height="34" viewBox="0 0 38 34" fill="none" xmlns="http://www.w3.org/2000/svg">
<path d="M33.7333 4.68332C32.8821 3.83166 31.8714 3.15607 30.7589 2.69513C29.6465 2.23419 28.4541 1.99695 27.25 1.99695C26.0459 1.99695 24.8535 2.23419 23.7411 2.69513C22.6286 3.15607 21.6179 3.83166 20.7667 4.68332L19 6.44999L17.2333 4.68332C15.5138 2.96384 13.1817 1.99784 10.75 1.99784C8.31827 1.99784 5.98615 2.96384 4.26666 4.68332C2.54717 6.40281 1.58118 8.73494 1.58118 11.1667C1.58118 13.5984 2.54717 15.9305 4.26666 17.65L6.03333 19.4167L19 32.3833L31.9667 19.4167L33.7333 17.65C34.585 16.7987 35.2606 15.788 35.7215 14.6756C36.1825 13.5632 36.4197 12.3708 36.4197 11.1667C36.4197 9.96251 36.1825 8.77016 35.7215 7.65773C35.2606 6.5453 34.585 5.53458 33.7333 4.68332V4.68332Z" stroke="#100C46" stroke-width="2" stroke-linecap="round" stroke-linejoin="round"/>
</svg>
